<svg width="115" height="124" viewBox="0 0 115 124" fill="none" xmlns="http://www.w3.org/2000/svg">
<path opacity="0.253397" fill-rule="evenodd" clip-rule="evenodd" d="M20.3633 88.6174C20.3633 88.6174 20.9345 85.4623 23.1807 92.8816C25.4269 100.301 50.8258 116.539 59.3279 103.388C67.8299 90.2375 79.8501 104.994 88.1533 101.048C96.4565 97.1008 97.7717 91.892 91.5827 79.341C85.3937 66.79 100.618 51.4961 85.4421 41.6636C70.2665 31.8312 82.0148 34.2467 82.0148 34.2467L81.9375 74.3894L61.6234 92.8062L20.3633 88.6174Z" fill="url(#paint0_linear_2_4057)"/>
<path opacity="0.518059" fill-rule="evenodd" clip-rule="evenodd" d="M80.5924 49.5454C80.5924 49.5454 78.8279 49.4428 82.7354 47.6925C86.643 45.9422 93.8152 30.7459 86.048 26.9215C78.2807 23.0972 85.544 15.4251 82.8254 11.0859C80.1068 6.74668 77.1685 6.37071 70.7193 10.6574C64.27 14.944 51.828 3.49477 47.4714 12.5833C43.1148 21.6718 50.5149 10.6373 50.5149 10.6373L68.6602 16.3456L80.1042 26.3665L80.5924 49.5454Z" fill="url(#paint1_linear_2_4057)"/>
<circle cx="44.8536" cy="53.824" r="39.8541" stroke="url(#paint2_linear_2_4057)" stroke-width="10" stroke-linecap="round"/>
<path d="M47.1558 62.125C47.1558 64.1927 48.838 65.875 50.9058 65.875H55.312C57.3798 65.875 59.062 64.1927 59.062 62.125V57.7188C59.062 55.651 57.3798 53.9688 55.312 53.9688H50.9058C48.838 53.9688 47.1558 55.651 47.1558 57.7188V62.125ZM50.9058 57.7188H55.312L55.3144 62.1249C55.3144 62.1249 55.3137 62.125 55.312 62.125H50.9058V57.7188Z" fill="#B370F5"/>
<path d="M57.187 49.5625C58.2225 49.5625 59.062 48.723 59.062 47.6875C59.062 46.652 58.2225 45.8125 57.187 45.8125C56.1515 45.8125 55.312 46.652 55.312 47.6875C55.312 48.723 56.1515 49.5625 57.187 49.5625Z" fill="#B370F5"/>
<path d="M49.0308 49.5625C50.0663 49.5625 50.9058 48.723 50.9058 47.6875C50.9058 46.652 50.0663 45.8125 49.0308 45.8125C47.9952 45.8125 47.1558 46.652 47.1558 47.6875C47.1558 48.723 47.9952 49.5625 49.0308 49.5625Z" fill="#B370F5"/>
<path d="M67.1245 61C68.1601 61 68.9995 60.1606 68.9995 59.125V39.25C68.9995 35.1145 65.635 31.75 61.4995 31.75H59.062V29.875C59.062 28.8394 58.2226 28 57.187 28C56.1514 28 55.312 28.8394 55.312 29.875V31.75H46.7808V29.875C46.7808 28.8394 45.9413 28 44.9058 28C43.8702 28 43.0308 28.8394 43.0308 29.875V31.75H34.5933V29.875C34.5933 28.8394 33.7538 28 32.7183 28C31.6827 28 30.8433 28.8394 30.8433 29.875V31.75H28.4995C24.364 31.75 20.9995 35.1145 20.9995 39.25V68.5C20.9995 72.6355 24.364 76 28.4995 76H61.4995C65.635 76 68.9995 72.6355 68.9995 68.5C68.9995 67.4644 68.1601 66.625 67.1245 66.625C66.0889 66.625 65.2495 67.4644 65.2495 68.5C65.2495 70.5677 63.5673 72.25 61.4995 72.25H28.4995C26.4318 72.25 24.7495 70.5677 24.7495 68.5V39.25C24.7495 37.1823 26.4318 35.5 28.4995 35.5H30.8433V37.375C30.8433 38.4106 31.6827 39.25 32.7183 39.25C33.7538 39.25 34.5933 38.4106 34.5933 37.375V35.5H43.0308V37.375C43.0308 38.4106 43.8702 39.25 44.9058 39.25C45.9413 39.25 46.7808 38.4106 46.7808 37.375V35.5H55.312V37.375C55.312 38.4106 56.1514 39.25 57.187 39.25C58.2226 39.25 59.062 38.4106 59.062 37.375V35.5H61.4995C63.5673 35.5 65.2495 37.1823 65.2495 39.25V59.125C65.2495 60.1606 66.0889 61 67.1245 61Z" fill="#B370F5"/>
<path d="M32.7183 65.875C33.7538 65.875 34.5933 65.0355 34.5933 64C34.5933 62.9645 33.7538 62.125 32.7183 62.125C31.6827 62.125 30.8433 62.9645 30.8433 64C30.8433 65.0355 31.6827 65.875 32.7183 65.875Z" fill="#B370F5"/>
<path d="M32.7183 49.5625C33.7538 49.5625 34.5933 48.723 34.5933 47.6875C34.5933 46.652 33.7538 45.8125 32.7183 45.8125C31.6827 45.8125 30.8433 46.652 30.8433 47.6875C30.8433 48.723 31.6827 49.5625 32.7183 49.5625Z" fill="#B370F5"/>
<path d="M32.7183 57.7188C33.7538 57.7188 34.5933 56.8793 34.5933 55.8438C34.5933 54.8082 33.7538 53.9688 32.7183 53.9688C31.6827 53.9688 30.8433 54.8082 30.8433 55.8438C30.8433 56.8793 31.6827 57.7188 32.7183 57.7188Z" fill="#B370F5"/>
<path d="M40.8745 57.7188C41.91 57.7188 42.7495 56.8793 42.7495 55.8438C42.7495 54.8082 41.91 53.9688 40.8745 53.9688C39.839 53.9688 38.9995 54.8082 38.9995 55.8438C38.9995 56.8793 39.839 57.7188 40.8745 57.7188Z" fill="#B370F5"/>
<path d="M40.8745 49.5625C41.91 49.5625 42.7495 48.723 42.7495 47.6875C42.7495 46.652 41.91 45.8125 40.8745 45.8125C39.839 45.8125 38.9995 46.652 38.9995 47.6875C38.9995 48.723 39.839 49.5625 40.8745 49.5625Z" fill="#B370F5"/>
<path d="M40.8745 65.875C41.91 65.875 42.7495 65.0355 42.7495 64C42.7495 62.9645 41.91 62.125 40.8745 62.125C39.839 62.125 38.9995 62.9645 38.9995 64C38.9995 65.0355 39.839 65.875 40.8745 65.875Z" fill="#B370F5"/>
<defs>
<linearGradient id="paint0_linear_2_4057" x1="23.4259" y1="50.5367" x2="142.436" y2="94.5389" gradientUnits="userSpaceOnUse">
<stop stop-color="#FD749B"/>
<stop offset="1" stop-color="#281AC8"/>
</linearGradient>
<linearGradient id="paint1_linear_2_4057" x1="58.7706" y1="50.2216" x2="75.3647" y2="-18.6755" gradientUnits="userSpaceOnUse">
<stop stop-color="#BB6DF3"/>
<stop offset="1" stop-color="#7A00F4"/>
</linearGradient>
<linearGradient id="paint2_linear_2_4057" x1="106.5" y1="-10.0007" x2="30.1223" y2="107.527" gradientUnits="userSpaceOnUse">
<stop stop-color="#907EFF"/>
<stop offset="1" stop-color="#BB6DF3"/>
</linearGradient>
</defs>
</svg>
