<svg width="115" height="124" viewBox="0 0 115 124" fill="none" xmlns="http://www.w3.org/2000/svg">
<path opacity="0.253397" fill-rule="evenodd" clip-rule="evenodd" d="M20.3633 88.6174C20.3633 88.6174 20.9345 85.4623 23.1807 92.8816C25.4269 100.301 50.8258 116.539 59.3279 103.388C67.8299 90.2375 79.8501 104.994 88.1533 101.048C96.4565 97.1008 97.7717 91.892 91.5827 79.341C85.3937 66.79 100.618 51.4961 85.4421 41.6636C70.2665 31.8312 82.0148 34.2467 82.0148 34.2467L81.9375 74.3894L61.6234 92.8062L20.3633 88.6174Z" fill="url(#paint0_linear_2_4056)"/>
<path opacity="0.518059" fill-rule="evenodd" clip-rule="evenodd" d="M80.5924 49.5454C80.5924 49.5454 78.8279 49.4428 82.7354 47.6925C86.643 45.9422 93.8152 30.7459 86.048 26.9215C78.2807 23.0972 85.544 15.4251 82.8254 11.0859C80.1068 6.74668 77.1685 6.37071 70.7193 10.6574C64.27 14.944 51.828 3.49477 47.4714 12.5833C43.1148 21.6718 50.5149 10.6373 50.5149 10.6373L68.6602 16.3456L80.1042 26.3665L80.5924 49.5454Z" fill="url(#paint1_linear_2_4056)"/>
<circle cx="44.8536" cy="53.824" r="39.8541" stroke="url(#paint2_linear_2_4056)" stroke-width="10" stroke-linecap="round"/>
<g clip-path="url(#clip0_2_4056)">
<path d="M57.516 66.2051H56.0805H32.772H31.3364H29.9009V70.0121H58.9516V66.2051H57.516Z" fill="#7A00F4"/>
<path d="M33.2849 42.572L31.2876 47.4424L32.5777 48.0778L33.8687 48.7133L35.444 49.4885L36.6144 47.8166L37.4413 46.6356L38.2672 45.4556L33.2849 42.572Z" fill="#7A00F4"/>
<path d="M55.7138 42.572L50.6367 45.5101L51.4636 46.6901L52.2895 47.8711L53.4217 49.4885L55.108 48.6587L56.398 48.0233L57.6891 47.3878L55.7138 42.572Z" fill="#7A00F4"/>
<path d="M64.9513 42.2316C62.8812 42.2316 61.17 43.7915 60.9317 45.7984C60.9126 45.9563 60.903 46.1171 60.903 46.2798C60.903 46.6454 60.9518 47.0005 61.0437 47.3373C61.171 47.8092 61.3825 48.2475 61.66 48.6341L58.7813 50.0515L57.4903 50.6869L57.3295 50.7664H57.3285L56.1992 51.3215L52.4812 53.1523L49.7948 49.3155L49.0722 48.2829V48.2819L48.9679 48.1336L48.142 46.9536L45.3647 42.9857C45.8508 42.8728 46.3045 42.6718 46.7064 42.4C47.1112 42.1282 47.4644 41.7827 47.7477 41.3846C48.2185 40.7233 48.4961 39.9146 48.4961 39.0427C48.4961 36.81 46.6806 34.9945 44.4478 34.9945C42.216 34.9945 40.3996 36.81 40.3996 39.0427C40.3996 39.906 40.6714 40.707 41.1336 41.3645C41.415 41.7645 41.7662 42.1119 42.1691 42.3866C42.5692 42.6603 43.0209 42.8642 43.5061 42.98L40.7623 46.899L39.9364 48.079L39.7593 48.3327L39.1095 49.261L36.3858 53.1523L32.7768 51.376L31.5882 50.7903L31.4868 50.7405L30.1957 50.1051L27.0624 48.5633C27.383 48.2054 27.6414 47.79 27.8194 47.3354C27.9974 46.8808 28.095 46.387 28.096 45.8712V45.8635C28.096 43.6308 26.2805 41.8143 24.0478 41.8143C21.816 41.8143 19.9995 43.6308 19.9995 45.8635C19.9995 47.9106 21.5279 49.6093 23.5042 49.8754C23.6822 49.8993 23.863 49.9118 24.0478 49.9118C24.3751 49.9118 24.6928 49.8725 24.9981 49.7988C25.4756 49.684 25.9207 49.484 26.3159 49.216L30.8254 61.8986L31.3355 63.3341H57.5304L58.0405 61.8986L62.4611 49.4686C62.841 49.7663 63.2746 49.9969 63.7454 50.1443C64.1263 50.2639 64.5311 50.3281 64.9513 50.3281C65.0374 50.3281 65.1226 50.3252 65.2068 50.3194C67.3199 50.1874 68.9995 48.4255 68.9995 46.2798C68.9995 44.0471 67.1831 42.2316 64.9513 42.2316Z" fill="#A078FA"/>
</g>
<defs>
<linearGradient id="paint0_linear_2_4056" x1="23.4259" y1="50.5367" x2="142.436" y2="94.5389" gradientUnits="userSpaceOnUse">
<stop stop-color="#FD749B"/>
<stop offset="1" stop-color="#281AC8"/>
</linearGradient>
<linearGradient id="paint1_linear_2_4056" x1="58.7706" y1="50.2216" x2="75.3647" y2="-18.6755" gradientUnits="userSpaceOnUse">
<stop stop-color="#BB6DF3"/>
<stop offset="1" stop-color="#7A00F4"/>
</linearGradient>
<linearGradient id="paint2_linear_2_4056" x1="106.5" y1="-10.0007" x2="30.1223" y2="107.527" gradientUnits="userSpaceOnUse">
<stop stop-color="#907EFF"/>
<stop offset="1" stop-color="#BB6DF3"/>
</linearGradient>
<clipPath id="clip0_2_4056">
<rect width="49" height="49" fill="white" transform="translate(19.9995 28.0032)"/>
</clipPath>
</defs>
</svg>
