<svg width="93" height="91" viewBox="0 0 93 91" fill="none" xmlns="http://www.w3.org/2000/svg">
<path d="M18.4934 25.0877C6.49372 37.5792 -0.00624044 53.0721 13.9933 66.0689C25.9938 77.2099 35.4937 84.5608 55.9936 79.5631C76.4935 74.5654 84.349 64.222 84.349 48.5595C84.3489 33.5841 73.0913 30.1998 60.9934 17.5915C37.4938 -6.89956 28.2515 14.9296 18.4934 25.0877Z" fill="#92C4FF"/>
<path d="M78.0001 33.5001C78.0001 64.5001 67.0001 70 56.0001 75.5641C45.0002 81.1282 25.5001 88.4999 17.5001 75C9.72013 61.8713 18.475 57.5782 15.0001 46.0001C10.5001 31.0065 16.6704 12.2434 31.5001 14.5001C54.5001 18 78.0001 8.32138 78.0001 33.5001Z" fill="#907AFF"/>
<path d="M65.783 51.335C65.9147 50.3699 65.9844 49.3855 65.9844 48.3847C65.9844 42.3661 63.5099 36.8612 59.4824 32.913C59.4568 32.8853 59.4304 32.8593 59.4023 32.835C56.3374 29.8611 52.3863 27.7845 47.9463 27.0568C47.588 25.4497 46.1558 24.245 44.448 24.245C42.7384 24.245 41.305 25.4497 40.9463 27.0564C38.5796 27.4429 36.3103 28.2204 34.1904 29.3752C33.6714 29.6581 33.4792 30.3097 33.7612 30.83C33.9555 31.188 34.323 31.3911 34.7028 31.3911C34.8753 31.3911 35.0502 31.3491 35.2126 31.2606C37.0707 30.2485 39.0555 29.5578 41.1254 29.2011C41.6609 30.5145 42.9483 31.4427 44.448 31.4427C45.946 31.4427 47.2317 30.5149 47.7671 29.2015C50.7267 29.713 53.4412 30.8917 55.7638 32.5706H51.6754C49.4725 32.5706 47.6803 34.3687 47.6803 36.5788C47.6803 38.7872 49.4725 40.584 51.6754 40.584C52.6968 40.584 53.5272 41.4199 53.5272 42.4467C53.5272 43.4739 52.6968 44.3094 51.6754 44.3094H51.0565C48.8552 44.3094 47.0643 46.1062 47.0643 48.315C47.0643 50.5252 48.8552 52.3232 51.0565 52.3232H63.4449C61.6258 61.1771 53.7991 67.8545 44.448 67.8545C40.188 67.8545 36.2449 66.4681 33.0415 64.1228H37.1412C39.3442 64.1228 41.1364 62.3252 41.1364 60.1147C41.1364 57.9062 39.3442 56.1094 37.1412 56.1094C36.1198 56.1094 35.2894 55.274 35.2894 54.2467C35.2894 53.2212 36.1198 52.387 37.1412 52.387H37.7572C39.9602 52.387 41.7523 50.589 41.7523 48.3788C41.7523 46.1683 39.9602 44.3702 37.7572 44.3702H25.4574C26.0574 41.4787 27.3104 38.7696 29.1668 36.39C29.5306 35.9233 29.4483 35.249 28.9826 34.884C28.5172 34.5189 27.8446 34.6016 27.4803 35.0686C24.4893 38.9035 22.9082 43.5083 22.9082 48.3847C22.9082 54.3647 25.3411 59.7853 29.2654 63.7024C29.3275 63.783 29.4001 63.8543 29.4823 63.9147C33.3604 67.6795 38.6388 70 44.448 70C55.2783 70 64.2652 61.9345 65.7632 51.4739C65.7729 51.4286 65.7792 51.3824 65.783 51.335V51.335ZM25.1364 46.5162H37.7572C38.7798 46.5162 39.6119 47.3516 39.6119 48.3788C39.6119 49.4056 38.7798 50.2415 37.7572 50.2415H37.1412C34.9399 50.2415 33.1489 52.0379 33.1489 54.2467C33.1489 56.4569 34.9399 58.2549 37.1412 58.2549C38.1638 58.2549 38.9959 59.0891 38.9959 60.1147C38.9959 61.1415 38.1638 61.9773 37.1412 61.9773H30.5733C27.1572 58.466 25.0487 53.6681 25.0487 48.3847C25.0487 47.7561 25.0789 47.133 25.1364 46.5162V46.5162ZM44.448 29.2968C43.649 29.2968 42.9995 28.6443 42.9995 27.8424C42.9995 27.0417 43.649 26.3905 44.448 26.3905C45.2448 26.3905 45.8931 27.0417 45.8931 27.8424C45.8931 28.6443 45.2448 29.2968 44.448 29.2968ZM51.0565 50.1773C50.0352 50.1773 49.2047 49.3419 49.2047 48.3146C49.2047 47.2895 50.0352 46.4549 51.0565 46.4549H51.6754C53.8768 46.4549 55.6677 44.6568 55.6677 42.4467C55.6677 40.2366 53.8768 38.4385 51.6754 38.4385C50.6528 38.4385 49.8207 37.6043 49.8207 36.5788C49.8207 35.5516 50.6528 34.7161 51.6754 34.7161H58.2559C61.7248 38.2514 63.8439 43.098 63.8439 48.3847C63.8439 48.989 63.815 49.5869 63.7608 50.1773H51.0565Z" fill="white"/>
<path d="M31.0312 33.9365C31.2368 33.9365 31.4449 33.8773 31.6287 33.7531L31.6467 33.7409C32.1369 33.4099 32.2661 32.7431 31.9354 32.2517C31.6052 31.7604 30.9401 31.6307 30.45 31.9622L30.432 31.9744C29.9418 32.3054 29.8126 32.9726 30.1428 33.4636C30.3497 33.7707 30.6871 33.9365 31.0312 33.9365Z" fill="white"/>
</svg>
