<svg width="153" height="30" viewBox="0 0 153 30" fill="none" xmlns="http://www.w3.org/2000/svg">
<path d="M11.034 0.561464C13.098 0.561464 14.838 0.981464 16.254 1.82146C17.67 2.66146 18.87 3.86146 19.854 5.42146C20.142 5.87746 20.286 6.30946 20.286 6.71746C20.286 7.24546 20.046 7.67746 19.566 8.01346C19.302 8.18146 18.99 8.26546 18.63 8.26546C18.27 8.26546 17.934 8.18146 17.622 8.01346C17.31 7.82146 17.07 7.56946 16.902 7.25746C16.254 6.17746 15.438 5.36146 14.454 4.80946C13.494 4.23346 12.27 3.94546 10.782 3.94546C8.95795 3.94546 7.48195 4.30546 6.35395 5.02546C5.22595 5.72146 4.66195 6.74146 4.66195 8.08546C4.66195 9.33346 5.16595 10.3775 6.17395 11.2175C7.18195 12.0575 8.98195 12.6095 11.574 12.8735C14.454 13.1615 16.686 14.0375 18.27 15.5015C19.854 16.9415 20.646 18.8495 20.646 21.2255C20.646 22.9535 20.178 24.4415 19.242 25.6895C18.306 26.9135 17.058 27.8375 15.498 28.4615C13.962 29.0615 12.306 29.3615 10.53 29.3615C8.20195 29.3615 6.07795 28.8335 4.15795 27.7775C2.26195 26.7215 0.953953 25.3415 0.233953 23.6375C0.113953 23.3495 0.0539533 23.1095 0.0539533 22.9175C0.0539533 22.5575 0.185953 22.2455 0.449953 21.9815C0.713953 21.6935 1.07395 21.5015 1.52995 21.4055C1.60195 21.3815 1.72195 21.3695 1.88995 21.3695C2.27395 21.3695 2.63395 21.4895 2.96995 21.7295C3.32995 21.9455 3.59395 22.2455 3.76195 22.6295C4.19395 23.5655 5.04595 24.3575 6.31795 25.0055C7.58995 25.6535 8.99395 25.9775 10.53 25.9775C12.33 25.9775 13.854 25.5695 15.102 24.7535C16.35 23.9135 16.974 22.7735 16.974 21.3335C16.974 19.9655 16.446 18.8015 15.39 17.8415C14.334 16.8575 12.726 16.2575 10.566 16.0415C7.58995 15.7535 5.24995 14.8895 3.54595 13.4495C1.84195 11.9855 0.989953 10.1615 0.989953 7.97746C0.989953 6.44146 1.42195 5.12146 2.28595 4.01746C3.17395 2.88946 4.37395 2.03746 5.88595 1.46146C7.42195 0.861464 9.13795 0.561464 11.034 0.561464ZM30.1311 27.1295C30.1311 27.6575 29.9511 28.1015 29.5911 28.4615C29.2311 28.8215 28.7871 29.0015 28.2591 29.0015C27.7551 29.0015 27.3111 28.8215 26.9271 28.4615C26.5671 28.1015 26.3871 27.6575 26.3871 27.1295V2.75746C26.3871 2.22946 26.5671 1.78546 26.9271 1.42546C27.3111 1.06546 27.7551 0.885464 28.2591 0.885464C28.7871 0.885464 29.2311 1.06546 29.5911 1.42546C29.9511 1.78546 30.1311 2.22946 30.1311 2.75746V13.5575L42.0471 1.64146C42.3351 1.35346 42.5871 1.16146 42.8031 1.06546C43.0431 0.945464 43.3071 0.885464 43.5951 0.885464C44.0991 0.885464 44.4831 1.04146 44.7471 1.35346C45.0351 1.64146 45.1791 2.00146 45.1791 2.43346C45.1791 3.05746 44.9511 3.59746 44.4951 4.05346L35.3151 13.2695L44.6751 26.0135C44.9151 26.3495 45.0351 26.7335 45.0351 27.1655C45.0351 27.6455 44.8791 28.0775 44.5671 28.4615C44.2551 28.8215 43.8591 29.0015 43.3791 29.0015C42.7071 29.0015 42.1911 28.7375 41.8311 28.2095L32.7231 15.8615L30.1311 18.4535V27.1295ZM69.5064 0.885464C69.9624 0.885464 70.3344 1.05346 70.6224 1.38946C70.9344 1.72546 71.0904 2.13346 71.0904 2.61346C71.0904 3.02146 70.9704 3.41746 70.7304 3.80146L61.0464 18.7415V27.1295C61.0464 27.6575 60.8664 28.1015 60.5064 28.4615C60.1464 28.8215 59.7024 29.0015 59.1744 29.0015C58.6704 29.0015 58.2384 28.8215 57.8784 28.4615C57.5184 28.1015 57.3384 27.6575 57.3384 27.1295V18.7415L47.7264 3.80146C47.4624 3.39346 47.3304 3.00946 47.3304 2.64946C47.3304 2.14546 47.5104 1.72546 47.8704 1.38946C48.2544 1.05346 48.6984 0.885464 49.2024 0.885464C49.5864 0.885464 49.8984 0.969464 50.1384 1.13746C50.3784 1.30546 50.6184 1.56946 50.8584 1.92946L59.2824 15.2855L67.8504 1.78546C68.2344 1.18546 68.7864 0.885464 69.5064 0.885464ZM85.3436 0.885464C86.9516 0.885464 88.3796 1.20946 89.6276 1.85746C90.8756 2.48146 91.8476 3.36946 92.5436 4.52146C93.2636 5.64946 93.6236 6.93346 93.6236 8.37346C93.6236 9.54946 93.2996 10.6055 92.6516 11.5415C92.0276 12.4775 91.1636 13.2335 90.0596 13.8095C91.6916 14.1935 92.9756 14.9615 93.9116 16.1135C94.8476 17.2655 95.3156 18.7295 95.3156 20.5055C95.3156 22.1375 94.9196 23.6015 94.1276 24.8975C93.3596 26.1935 92.2676 27.2015 90.8516 27.9215C89.4596 28.6415 87.8756 29.0015 86.0996 29.0015H76.7396C76.2116 29.0015 75.7676 28.8215 75.4076 28.4615C75.0476 28.1015 74.8676 27.6575 74.8676 27.1295V2.75746C74.8676 2.20546 75.0476 1.76146 75.4076 1.42546C75.7676 1.06546 76.2116 0.885464 76.7396 0.885464H85.3436ZM85.3436 12.4415C86.7596 12.4415 87.8876 12.0935 88.7276 11.3975C89.5916 10.7015 90.0236 9.69346 90.0236 8.37346C90.0236 7.05346 89.5916 6.05746 88.7276 5.38546C87.8876 4.68946 86.7596 4.34146 85.3436 4.34146H78.6116V12.4415H85.3436ZM86.0996 25.5455C87.7796 25.5455 89.1356 25.1135 90.1676 24.2495C91.1996 23.3615 91.7156 22.1135 91.7156 20.5055C91.7156 19.0175 91.1996 17.8775 90.1676 17.0855C89.1596 16.2935 87.8036 15.8975 86.0996 15.8975H78.6116V25.5455H86.0996ZM113.176 0.525465C115.936 0.525465 118.396 1.13746 120.556 2.36146C122.74 3.58546 124.432 5.28946 125.632 7.47346C126.856 9.65746 127.468 12.1415 127.468 14.9255C127.468 17.7095 126.856 20.2055 125.632 22.4135C124.432 24.5975 122.752 26.3015 120.592 27.5255C118.432 28.7495 115.96 29.3615 113.176 29.3615C110.392 29.3615 107.908 28.7495 105.724 27.5255C103.564 26.3015 101.884 24.5975 100.684 22.4135C99.4841 20.2055 98.8841 17.7095 98.8841 14.9255C98.8841 12.1415 99.4841 9.65746 100.684 7.47346C101.884 5.28946 103.564 3.58546 105.724 2.36146C107.908 1.13746 110.392 0.525465 113.176 0.525465ZM113.176 3.90946C111.112 3.90946 109.264 4.38946 107.632 5.34946C106.024 6.30946 104.764 7.62946 103.852 9.30946C102.94 10.9895 102.484 12.8615 102.484 14.9255C102.484 16.9895 102.94 18.8615 103.852 20.5415C104.764 22.2215 106.036 23.5535 107.668 24.5375C109.3 25.4975 111.136 25.9775 113.176 25.9775C115.216 25.9775 117.052 25.4975 118.684 24.5375C120.316 23.5535 121.588 22.2215 122.5 20.5415C123.412 18.8615 123.868 16.9895 123.868 14.9255C123.868 12.8615 123.412 10.9895 122.5 9.30946C121.588 7.62946 120.316 6.30946 118.684 5.34946C117.076 4.38946 115.24 3.90946 113.176 3.90946ZM151.943 25.9775C152.207 26.3615 152.339 26.7695 152.339 27.2015C152.339 27.6815 152.183 28.1015 151.871 28.4615C151.559 28.8215 151.139 29.0015 150.611 29.0015C150.011 29.0015 149.531 28.7735 149.171 28.3175L141.359 17.4815L133.079 28.4615C132.719 28.8215 132.287 29.0015 131.783 29.0015C131.255 29.0015 130.835 28.8335 130.523 28.4975C130.235 28.1615 130.091 27.7535 130.091 27.2735C130.091 26.7935 130.235 26.3615 130.523 25.9775L138.911 14.8175L130.991 3.83746C130.751 3.52546 130.631 3.15346 130.631 2.72146C130.631 2.21746 130.787 1.78546 131.099 1.42546C131.411 1.06546 131.831 0.885464 132.359 0.885464C132.983 0.885464 133.427 1.06546 133.691 1.42546L141.431 12.1535L149.495 1.42546C149.831 1.06546 150.275 0.885464 150.827 0.885464C151.331 0.885464 151.727 1.05346 152.015 1.38946C152.327 1.72546 152.483 2.13346 152.483 2.61346C152.483 3.02146 152.351 3.42946 152.087 3.83746L143.879 14.7815L151.943 25.9775Z" fill="white"/>
</svg>
