<svg width="42" height="42" viewBox="0 0 42 42" fill="none" xmlns="http://www.w3.org/2000/svg">
<g clip-path="url(#clip0_2_3481)">
<path d="M40.8508 18.5119C40.7147 17.6587 39.9126 17.0774 39.0594 17.2135C38.2061 17.3497 37.6249 18.1517 37.761 19.005C37.7625 19.0143 37.764 19.0236 37.7657 19.0328C39.3588 28.4113 33.0477 37.3054 23.6692 38.8985C14.2908 40.4917 5.39666 34.1805 3.80351 24.8021C2.21035 15.4237 8.52164 6.52954 17.9 4.93638C23.6675 3.95666 29.538 5.97129 33.4886 10.2861L26.5582 12.5952C25.7383 12.8679 25.2949 13.7536 25.5676 14.5735C25.5677 14.5737 25.5678 14.5739 25.5679 14.5741C25.8407 15.394 26.7264 15.8374 27.5462 15.5647C27.5465 15.5646 27.5467 15.5645 27.5469 15.5645L36.9335 12.4357C37.5726 12.2228 38.0037 11.6247 38.0036 10.951V1.56446C38.0036 0.700418 37.3031 0 36.4391 0C35.5751 0 34.8746 0.700418 34.8746 1.56446V7.27927C26.818 -0.383621 14.0747 -0.064349 6.41177 7.99234C-1.25113 16.049 -0.931951 28.7923 7.12483 36.4553C15.1816 44.1183 27.9248 43.799 35.5878 35.7422C39.9574 31.1479 41.9075 24.7637 40.8508 18.5119Z" fill="#ADADAD"/>
</g>
<defs>
<clipPath id="clip0_2_3481">
<rect width="42" height="42" fill="white"/>
</clipPath>
</defs>
</svg>
