<svg width="93" height="91" viewBox="0 0 93 91" fill="none" xmlns="http://www.w3.org/2000/svg">
<path d="M18.4934 25.0877C6.49372 37.5792 -0.00624044 53.0721 13.9933 66.0689C25.9938 77.2099 35.4937 84.5608 55.9936 79.5631C76.4935 74.5654 84.349 64.222 84.349 48.5595C84.3489 33.5841 73.0913 30.1998 60.9934 17.5915C37.4938 -6.89956 28.2515 14.9296 18.4934 25.0877Z" fill="#92C4FF"/>
<path d="M78.0001 33.5001C78.0001 64.5001 67.0001 70 56.0001 75.5641C45.0002 81.1282 25.5001 88.4999 17.5001 75C9.72013 61.8713 18.475 57.5782 15.0001 46.0001C10.5001 31.0065 16.6704 12.2434 31.5001 14.5001C54.5001 18 78.0001 8.32138 78.0001 33.5001Z" fill="#907AFF"/>
<g clip-path="url(#clip0_2_4051)">
<path d="M55.8066 31.9592C56.2596 31.9592 56.6269 31.5919 56.6269 31.1389C56.6269 30.6859 56.2596 30.3186 55.8066 30.3186H55.8019C55.3489 30.3186 54.9839 30.6859 54.9839 31.1389C54.9839 31.5919 55.3536 31.9592 55.8066 31.9592Z" fill="white"/>
<path d="M60.2338 31.9592C60.6868 31.9592 61.0541 31.5919 61.0541 31.1389C61.0541 30.6859 60.6868 30.3186 60.2338 30.3186H60.2291C59.7762 30.3186 59.4111 30.6859 59.4111 31.1389C59.4111 31.5919 59.7808 31.9592 60.2338 31.9592Z" fill="white"/>
<path d="M51.3793 31.9592C51.8323 31.9592 52.1996 31.5919 52.1996 31.1389C52.1996 30.6859 51.8323 30.3186 51.3793 30.3186H51.3747C50.9217 30.3186 50.5566 30.6859 50.5566 31.1389C50.5566 31.5919 50.9263 31.9592 51.3793 31.9592Z" fill="white"/>
<path d="M29.7637 31.9592H42.0899C42.5429 31.9592 42.9102 31.5919 42.9102 31.1389C42.9102 30.6859 42.5429 30.3186 42.0899 30.3186H29.7637C29.3106 30.3186 28.9434 30.6859 28.9434 31.1389C28.9434 31.5919 29.3106 31.9592 29.7637 31.9592Z" fill="white"/>
<path d="M63.3684 26.0013H26.6317C25.1806 26.0013 24 27.1819 24 28.633V59.0078C24 60.4588 25.1806 61.6394 26.6317 61.6394H33.197C33.7205 62.432 34.3281 63.1766 35.0155 63.8639C37.6828 66.5313 41.2287 68.0002 45 68.0002C48.7714 68.0002 52.3173 66.5313 54.9846 63.8639C55.6761 63.1723 56.2807 62.4263 56.7985 61.6394H63.3684C64.8194 61.6394 66 60.4588 66 59.0078V28.633C66 27.1819 64.8194 26.0013 63.3684 26.0013V26.0013ZM26.6317 27.642H63.3684C63.9148 27.642 64.3594 28.0866 64.3594 28.633V34.6396H25.6406V28.633C25.6406 28.0866 26.0852 27.642 26.6317 27.642V27.642ZM63.3684 59.9988H57.7252C60.2451 54.7458 59.3323 48.2449 54.9846 43.8972C52.7742 41.6869 49.9721 40.3 46.8811 39.8868C43.8896 39.487 40.7953 40.0669 38.1679 41.5202C37.7714 41.7395 37.6278 42.2386 37.847 42.6351C38.0663 43.0315 38.5656 43.1751 38.9618 42.9559C43.7996 40.2799 49.9113 41.1441 53.8244 45.0573C58.6896 49.9225 58.6896 57.8387 53.8244 62.7038C51.467 65.0612 48.3331 66.3595 45 66.3595C41.6669 66.3595 38.533 65.0612 36.1756 62.7038C32.263 58.7913 31.3989 52.6805 34.0741 47.8436C34.2934 47.4472 34.1497 46.9481 33.7533 46.7288C33.357 46.5095 32.8577 46.6531 32.6385 47.0496C31.1852 49.677 30.6052 52.771 31.0051 55.7617C31.2045 57.2526 31.6311 58.6761 32.2669 59.9987H26.6317C26.0852 59.9987 25.6406 59.5541 25.6406 59.0077V36.2801H64.3594V59.0077C64.3594 59.5542 63.9148 59.9988 63.3684 59.9988Z" fill="white"/>
<path d="M44.999 58.6065C45.4521 58.6065 45.8193 58.2392 45.8193 57.7862V55.8284C45.8193 55.3754 45.452 55.0081 44.999 55.0081C44.546 55.0081 44.1787 55.3754 44.1787 55.8284V57.7862C44.1787 58.2393 44.546 58.6065 44.999 58.6065Z" fill="white"/>
<path d="M44.9989 63.2826C48.8745 63.2826 52.0276 60.1294 52.0276 56.2538V53.117C52.0276 52.0557 51.2644 51.1697 50.2582 50.9778V48.8269C50.2582 46.4053 48.2879 44.4351 45.8662 44.4351H44.1316C41.7099 44.4351 39.7397 46.4053 39.7397 48.8269V50.9781C38.7333 51.1707 37.9702 52.0563 37.9702 53.117V56.2538C37.9701 60.1295 41.1232 63.2826 44.9989 63.2826V63.2826ZM41.3803 48.8269C41.3803 47.3099 42.6145 46.0757 44.1316 46.0757H45.8662C47.3833 46.0757 48.6175 47.3099 48.6175 48.8269V50.9387H41.3803V48.8269ZM39.6108 53.117C39.6108 52.8255 39.8581 52.5794 40.1508 52.5794H49.8493C50.1408 52.5794 50.387 52.8255 50.387 53.117V56.2538C50.387 59.2248 47.9699 61.6419 44.9989 61.6419C42.0279 61.6419 39.6108 59.2248 39.6108 56.2538V53.117Z" fill="white"/>
<path d="M35.0156 43.8964C34.6953 44.2168 34.6953 44.7362 35.0156 45.0566C35.1758 45.2167 35.3858 45.2969 35.5957 45.2969C35.8056 45.2969 36.0156 45.2167 36.1757 45.0566L36.178 45.0543C36.4984 44.734 36.4972 44.2157 36.1769 43.8954C35.8565 43.575 35.3361 43.5761 35.0156 43.8964V43.8964Z" fill="white"/>
</g>
<defs>
<clipPath id="clip0_2_4051">
<rect width="42" height="42" fill="white" transform="translate(24 26)"/>
</clipPath>
</defs>
</svg>
