<svg width="93" height="91" viewBox="0 0 93 91" fill="none" xmlns="http://www.w3.org/2000/svg">
<path d="M18.4934 25.0877C6.49372 37.5792 -0.00624044 53.0721 13.9933 66.0689C25.9938 77.2099 35.4937 84.5608 55.9936 79.5631C76.4935 74.5654 84.349 64.222 84.349 48.5595C84.3489 33.5841 73.0913 30.1998 60.9934 17.5915C37.4938 -6.89956 28.2515 14.9296 18.4934 25.0877Z" fill="#92C4FF"/>
<path d="M78.0001 33.5001C78.0001 64.5001 67.0001 69.9999 56.0001 75.564C45.0002 81.1281 25.5001 88.4999 17.5001 74.9999C9.72013 61.8712 18.475 57.5781 15.0001 46.0001C10.5001 31.0065 16.6704 12.2434 31.5001 14.5C54.5001 17.9999 78.0001 8.32132 78.0001 33.5001Z" fill="#907AFF"/>
<g clip-path="url(#clip0_2_4054)">
<path d="M43.6523 28.3906C38.4628 28.6886 33.5983 30.7034 29.7178 34.1624L35.4723 39.9166C36.7386 39.467 38.101 39.2214 39.5195 39.2214C40.97 39.2214 42.3619 39.4779 43.6523 39.9471V28.3906Z" fill="white"/>
<path d="M48.884 43.6504L59.7695 33.7188C55.9771 30.5311 51.3112 28.6756 46.3477 28.3906V41.3316C47.2987 41.9816 48.153 42.7632 48.884 43.6504V43.6504Z" fill="white"/>
<path d="M22 51.3506V52.6982H27.3906V51.3506C27.3906 47.0939 29.595 43.3429 32.9216 41.1779L27.8121 36.0684C24.0552 40.2829 22 45.6585 22 51.3506Z" fill="white"/>
<path d="M60.853 52.6982H67.9998V51.3506C67.9998 49.3909 67.7552 47.4691 67.2828 45.6188L60.853 52.6982Z" fill="white"/>
<path d="M44.9995 52.7437C43.5595 52.7437 42.2056 53.3045 41.1875 54.3226C39.086 56.4245 39.086 59.8442 41.1875 61.946C42.2056 62.9641 43.5595 63.525 44.9995 63.525C46.4391 63.525 47.7931 62.9641 48.8112 61.946C50.913 59.8442 50.913 56.4245 48.8112 54.3226C47.7931 53.3045 46.4391 52.7437 44.9995 52.7437Z" fill="white"/>
<path d="M62.2668 35.089L45.8247 50.0901C47.6725 50.2761 49.3862 51.0857 50.717 52.4165C52.0801 53.7796 52.8525 55.5126 53.0371 57.2955L68 40.8204V35.089H62.2668Z" fill="white"/>
</g>
<defs>
<clipPath id="clip0_2_4054">
<rect width="46" height="46" fill="white" transform="translate(22 23)"/>
</clipPath>
</defs>
</svg>
