<svg width="93" height="91" viewBox="0 0 93 91" fill="none" xmlns="http://www.w3.org/2000/svg">
<path d="M18.4934 25.0877C6.49372 37.5792 -0.00624044 53.0721 13.9933 66.0689C25.9938 77.2099 35.4937 84.5608 55.9936 79.5631C76.4935 74.5654 84.349 64.222 84.349 48.5595C84.3489 33.5841 73.0913 30.1998 60.9934 17.5915C37.4938 -6.89956 28.2515 14.9296 18.4934 25.0877Z" fill="#92C4FF"/>
<path d="M78.0001 33.5001C78.0001 64.5001 67.0001 70 56.0001 75.5641C45.0002 81.1282 25.5001 88.4999 17.5001 75C9.72013 61.8713 18.475 57.5782 15.0001 46.0001C10.5001 31.0065 16.6704 12.2434 31.5001 14.5001C54.5001 18 78.0001 8.32138 78.0001 33.5001Z" fill="#907AFF"/>
<path d="M40.5839 42.1793C42.2534 42.1793 43.6068 40.8259 43.6068 39.1564C43.6068 37.4869 42.2534 36.1335 40.5839 36.1335C38.9144 36.1335 37.561 37.4869 37.561 39.1564C37.561 40.8259 38.9144 42.1793 40.5839 42.1793Z" fill="white"/>
<path d="M65.3969 50.2825C63.9695 48.939 62.1641 48.0573 60.1908 47.8054V32.439C60.1908 30.8015 59.5191 29.3321 58.4695 28.2405C57.3779 27.1489 55.9084 26.5191 54.271 26.5191H29.9198C28.2824 26.5191 26.813 27.1909 25.7214 28.2405C24.6298 29.3321 24 30.8015 24 32.439V51.7939V53.5993V57.5038C24 59.1412 24.6718 60.6107 25.7214 61.7023C26.813 62.7939 28.2824 63.4237 29.9198 63.4237H53.4733C55.0267 64.6832 56.958 65.4809 59.0992 65.4809C61.5763 65.4809 63.8015 64.4733 65.3969 62.8779C66.9924 61.2825 68 59.0573 68 56.5802C68 54.1031 66.9924 51.8779 65.3969 50.2825ZM26.2252 32.439C26.2252 31.4313 26.645 30.5077 27.3168 29.8779C27.9885 29.2061 28.9122 28.7863 29.9198 28.7863H54.271C55.2786 28.7863 56.2023 29.2061 56.874 29.8779C57.5458 30.5496 57.9656 31.4733 57.9656 32.4809V45.5802L51.7519 39.3664C51.3321 38.9466 50.6183 38.9046 50.1565 39.3664L40.7939 48.771L34.4542 42.3893C34.0344 41.9695 33.3206 41.9275 32.8588 42.3893L26.2252 49.1069V32.439V32.439ZM29.8779 61.2825V61.1985C28.8702 61.1985 27.9466 60.7786 27.2748 60.1069C26.645 59.4351 26.2252 58.5115 26.2252 57.5038V53.5993V52.2977L33.6565 44.8244L39.9962 51.1641C40.416 51.584 41.1298 51.584 41.5916 51.1641L50.9542 41.7596L57.084 47.9313C56.958 47.9733 56.8321 48.0153 56.7061 48.0573C56.5382 48.0993 56.3702 48.1412 56.1603 48.2252C55.9924 48.2672 55.8244 48.3512 55.6565 48.3931C55.5305 48.4351 55.4466 48.4771 55.3206 48.5611C55.1527 48.6451 55.0267 48.687 54.9008 48.771C54.6908 48.897 54.4809 49.0229 54.271 49.1489C54.145 49.2328 54.0611 49.2748 53.9351 49.3588C53.8511 49.4008 53.8092 49.4428 53.7252 49.4848C53.3473 49.7367 53.0114 50.0306 52.7176 50.3664C51.1221 51.9619 50.1145 54.187 50.1145 56.6641C50.1145 57.2939 50.1985 57.8817 50.3244 58.5115C50.3664 58.6794 50.4084 58.8054 50.4504 58.9733C50.5763 59.3932 50.7023 59.813 50.8702 60.2328V60.2748C51.0382 60.6107 51.2061 60.9886 51.416 61.2825H29.8779V61.2825ZM63.7595 61.2825C62.542 62.5 60.9046 63.2138 59.0573 63.2138C57.2939 63.2138 55.6565 62.5 54.4809 61.3664C54.313 61.1985 54.145 60.9886 53.9771 60.8206C53.8511 60.6947 53.7252 60.5267 53.5992 60.4008C53.4313 60.1909 53.3053 59.939 53.1794 59.687C53.0954 59.5191 53.0114 59.3932 52.9275 59.2252C52.8435 59.0153 52.7595 58.7634 52.7176 58.5115C52.6756 58.3435 52.5916 58.1336 52.5496 57.9657C52.4656 57.5458 52.4237 57.084 52.4237 56.6222C52.4237 54.7748 53.1794 53.1374 54.355 51.9199C55.5305 50.7023 57.2099 49.9886 59.0573 49.9886C60.9046 49.9886 62.542 50.7443 63.7595 51.9199C64.9771 53.1374 65.6908 54.7748 65.6908 56.6222C65.6908 58.4275 64.9351 60.0649 63.7595 61.2825Z" fill="white"/>
<path d="M59.8552 52.0879C59.7712 52.0039 59.6452 51.92 59.4773 51.836C59.3513 51.794 59.2254 51.752 59.0994 51.752C59.0574 51.752 59.0574 51.752 59.0574 51.752C59.0155 51.752 59.0155 51.752 59.0155 51.752C58.8895 51.752 58.7636 51.794 58.6376 51.836C58.5116 51.878 58.3857 51.9619 58.2597 52.0879L55.6567 54.6909C55.2368 55.1108 55.2368 55.8245 55.6567 56.2864C56.0765 56.7062 56.7903 56.7062 57.2521 56.2864L57.9239 55.6146V60.2329C57.9239 60.8627 58.4277 61.3665 59.0574 61.3665C59.6872 61.3665 60.191 60.8627 60.191 60.2329V55.6146L60.8628 56.2864C61.2826 56.7062 61.9964 56.7062 62.4582 56.2864C62.8781 55.8665 62.8781 55.1528 62.4582 54.6909L59.8552 52.0879Z" fill="white"/>
</svg>
