<svg width="115" height="124" viewBox="0 0 115 124" fill="none" xmlns="http://www.w3.org/2000/svg">
<path opacity="0.253397" fill-rule="evenodd" clip-rule="evenodd" d="M20.3633 88.6174C20.3633 88.6174 20.9345 85.4623 23.1807 92.8816C25.4269 100.301 50.8258 116.539 59.3279 103.388C67.8299 90.2375 79.8501 104.994 88.1533 101.048C96.4565 97.1008 97.7717 91.892 91.5827 79.341C85.3937 66.79 100.618 51.4961 85.4421 41.6636C70.2665 31.8312 82.0148 34.2467 82.0148 34.2467L81.9375 74.3894L61.6234 92.8062L20.3633 88.6174Z" fill="url(#paint0_linear_2_4058)"/>
<path opacity="0.518059" fill-rule="evenodd" clip-rule="evenodd" d="M80.5924 49.5454C80.5924 49.5454 78.8279 49.4428 82.7354 47.6925C86.643 45.9422 93.8152 30.7459 86.048 26.9215C78.2807 23.0972 85.544 15.4251 82.8254 11.0859C80.1068 6.74668 77.1685 6.37071 70.7193 10.6574C64.27 14.944 51.828 3.49477 47.4714 12.5833C43.1148 21.6718 50.5149 10.6373 50.5149 10.6373L68.6602 16.3456L80.1042 26.3665L80.5924 49.5454Z" fill="url(#paint1_linear_2_4058)"/>
<circle cx="44.8536" cy="53.824" r="39.8541" stroke="url(#paint2_linear_2_4058)" stroke-width="10" stroke-linecap="round"/>
<g clip-path="url(#clip0_2_4058)">
<path d="M66.9995 45.1797C66.9995 44.6652 66.8997 44.1649 66.703 43.6929C66.7029 43.6925 66.7027 43.6921 66.7025 43.6918L62.4052 33.3796C61.8028 31.9341 60.4016 31 58.8355 31H31.1635C29.5974 31 28.1962 31.9341 27.5938 33.3796L23.296 43.6928C23.0993 44.1649 22.9995 44.6652 22.9995 45.1797V50.5078C22.9995 51.4976 23.3737 52.4012 23.9874 53.0859C23.3737 53.7707 22.9995 54.6743 22.9995 55.6641V60.8203C22.9995 61.8101 23.3737 62.7137 23.9874 63.3984C23.3737 64.0832 22.9995 64.9868 22.9995 65.9766V71.1328C22.9995 73.2652 24.7343 75 26.8667 75H63.1323C65.2647 75 66.9995 73.2652 66.9995 71.1328V65.9766C66.9995 64.9868 66.6253 64.0832 66.0117 63.3984C66.6254 62.7137 66.9995 61.8101 66.9995 60.8203V55.6641C66.9995 54.6743 66.6253 53.7707 66.0117 53.0859C66.6254 52.4012 66.9995 51.4976 66.9995 50.5078V45.1797ZM29.9736 34.3713C30.1744 33.8895 30.6415 33.5781 31.1635 33.5781H58.8355C59.3575 33.5781 59.8246 33.8895 60.0254 34.3713L62.9181 41.3125H27.0809L29.9736 34.3713ZM64.4214 71.1328C64.4214 71.8436 63.8431 72.4219 63.1323 72.4219H26.8667C26.1559 72.4219 25.5776 71.8436 25.5776 71.1328V65.9766C25.5776 65.2658 26.1559 64.6875 26.8667 64.6875H63.1323C63.8431 64.6875 64.4214 65.2658 64.4214 65.9766V71.1328ZM64.4214 60.8203C64.4214 61.5311 63.8431 62.1094 63.1323 62.1094H26.8667C26.1559 62.1094 25.5776 61.5311 25.5776 60.8203V55.6641C25.5776 54.9533 26.1559 54.375 26.8667 54.375H63.1323C63.8431 54.375 64.4214 54.9533 64.4214 55.6641V60.8203ZM64.4214 50.5078C64.4214 51.2186 63.8431 51.7969 63.1323 51.7969H26.8667C26.1559 51.7969 25.5776 51.2186 25.5776 50.5078V45.1797C25.5776 44.4628 26.1565 43.8906 26.8667 43.8906H63.1323C63.8447 43.8906 64.4214 44.465 64.4214 45.1797V50.5078Z" fill="#B370F5"/>
<path d="M60.5542 67.2656H37.1792C36.4673 67.2656 35.8901 67.8428 35.8901 68.5547C35.8901 69.2666 36.4673 69.8438 37.1792 69.8438H60.5542C61.2661 69.8438 61.8433 69.2666 61.8433 68.5547C61.8433 67.8428 61.2661 67.2656 60.5542 67.2656Z" fill="#B370F5"/>
<path d="M60.5542 46.4688H37.1792C36.4673 46.4688 35.8901 47.0459 35.8901 47.7578C35.8901 48.4697 36.4673 49.0469 37.1792 49.0469H60.5542C61.2661 49.0469 61.8433 48.4697 61.8433 47.7578C61.8433 47.0459 61.2661 46.4688 60.5542 46.4688Z" fill="#B370F5"/>
<path d="M29.4448 46.4688C28.7329 46.4688 28.1558 47.0459 28.1558 47.7578C28.1558 48.4697 28.7329 49.2188 29.4448 49.2188C30.1567 49.2188 30.7339 48.4697 30.7339 47.7578C30.7339 47.0459 30.1567 46.4688 29.4448 46.4688Z" fill="#B370F5"/>
<path d="M60.5542 56.9531H37.1792C36.4673 56.9531 35.8901 57.5303 35.8901 58.2422C35.8901 58.9541 36.4673 59.5312 37.1792 59.5312H60.5542C61.2661 59.5312 61.8433 58.9541 61.8433 58.2422C61.8433 57.5303 61.2661 56.9531 60.5542 56.9531Z" fill="#B370F5"/>
<path d="M29.4448 59.5312C30.1568 59.5312 30.7339 58.9541 30.7339 58.2422C30.7339 57.5303 30.1568 56.9531 29.4448 56.9531C28.7329 56.9531 28.1558 57.5303 28.1558 58.2422C28.1558 58.9541 28.7329 59.5312 29.4448 59.5312Z" fill="#B370F5"/>
<path d="M29.4448 69.8438C30.1568 69.8438 30.7339 69.2666 30.7339 68.5547C30.7339 67.8428 30.1568 67.2656 29.4448 67.2656C28.7329 67.2656 28.1558 67.8428 28.1558 68.5547C28.1558 69.2666 28.7329 69.8438 29.4448 69.8438Z" fill="#B370F5"/>
</g>
<defs>
<linearGradient id="paint0_linear_2_4058" x1="23.4259" y1="50.5367" x2="142.436" y2="94.5389" gradientUnits="userSpaceOnUse">
<stop stop-color="#FD749B"/>
<stop offset="1" stop-color="#281AC8"/>
</linearGradient>
<linearGradient id="paint1_linear_2_4058" x1="58.7706" y1="50.2216" x2="75.3647" y2="-18.6755" gradientUnits="userSpaceOnUse">
<stop stop-color="#BB6DF3"/>
<stop offset="1" stop-color="#7A00F4"/>
</linearGradient>
<linearGradient id="paint2_linear_2_4058" x1="106.5" y1="-10.0007" x2="30.1223" y2="107.527" gradientUnits="userSpaceOnUse">
<stop stop-color="#907EFF"/>
<stop offset="1" stop-color="#BB6DF3"/>
</linearGradient>
<clipPath id="clip0_2_4058">
<rect width="44" height="44" fill="white" transform="translate(22.9995 31)"/>
</clipPath>
</defs>
</svg>
