<svg width="74" height="74" viewBox="0 0 74 74" fill="none" xmlns="http://www.w3.org/2000/svg">
<g clip-path="url(#clip0_2_3002)">
<path d="M74 59.5469C74 61.1435 72.706 62.4375 71.1094 62.4375H62.4375V71.1094C62.4375 72.706 61.1435 74 59.5469 74C57.9503 74 56.6562 72.706 56.6562 71.1094V62.4375H47.9844C46.3878 62.4375 45.0938 61.1435 45.0938 59.5469C45.0938 57.9503 46.3878 56.6562 47.9844 56.6562H56.6562V47.9844C56.6562 46.3878 57.9503 45.0938 59.5469 45.0938C61.1435 45.0938 62.4375 46.3878 62.4375 47.9844V56.6562H71.1094C72.706 56.6562 74 57.9503 74 59.5469ZM50.875 71.1094C50.875 72.706 49.581 74 47.9844 74H8.67188C3.88992 74 0 70.1101 0 65.3281V59.9805C0 54.9919 2.13974 50.2517 5.86989 46.9743C8.8898 44.3203 14.6733 40.3869 23.9707 38.3426C18.8896 34.4284 15.6094 28.2858 15.6094 21.3906C15.6094 9.59608 25.2055 0 37 0C48.7945 0 58.3906 9.59608 58.3906 21.3906C58.3906 33.1852 48.7945 42.7812 37 42.7812C21.1157 42.7812 12.6064 48.7505 9.68585 51.3171C7.20454 53.4975 5.78125 56.6546 5.78125 59.9805V65.3281C5.78125 66.9219 7.07808 68.2188 8.67188 68.2188H47.9844C49.581 68.2188 50.875 69.5128 50.875 71.1094ZM37 37C45.6069 37 52.6094 29.9976 52.6094 21.3906C52.6094 12.7837 45.6069 5.78125 37 5.78125C28.3931 5.78125 21.3906 12.7837 21.3906 21.3906C21.3906 29.9976 28.3931 37 37 37Z" fill="#82B1FC"/>
</g>
<defs>
<clipPath id="clip0_2_3002">
<rect width="74" height="74" fill="white"/>
</clipPath>
</defs>
</svg>
